<svg id="Layer_1" height="512" viewBox="0 0 64 64" width="512" xmlns="http://www.w3.org/2000/svg" data-name="Layer 1"><path d="m61 48h-1v-36a1 1 0 0 0 -1-1h-54a1 1 0 0 0 -1 1v36h-1a1 1 0 0 0 -1 1v2a3 3 0 0 0 3 3h54a3 3 0 0 0 3-3v-2a1 1 0 0 0 -1-1zm-55-35h52v35h-52zm54 38a1 1 0 0 1 -1 1h-54a1 1 0 0 1 -1-1v-1h56z"/><path d="m31 14h2v2h-2z"/><path d="m9.806 23.981a1 1 0 0 0 1.026-.426l1.168-1.755 1.168 1.752a1 1 0 0 0 .832.448.989.989 0 0 0 .194-.019 1 1 0 0 0 .786-.785l1-5-1.96-.396-.527 2.633-.661-.992a1.039 1.039 0 0 0 -1.664 0l-.661.992-.527-2.633-1.96.4 1 5a1 1 0 0 0 .786.781z"/><path d="m27.806 23.981a1 1 0 0 0 1.026-.426l1.168-1.755 1.168 1.752a1 1 0 0 0 .832.448.989.989 0 0 0 .194-.019 1 1 0 0 0 .786-.785l1-5-1.96-.396-.527 2.633-.661-.992a1.039 1.039 0 0 0 -1.664 0l-.661.992-.527-2.633-1.96.392 1 5a1 1 0 0 0 .786.789z"/><path d="m19.832 23.555 1.168-1.755 1.168 1.752a1 1 0 0 0 .832.448.989.989 0 0 0 .194-.019 1 1 0 0 0 .786-.785l1-5-1.96-.396-.527 2.633-.661-.992a1.039 1.039 0 0 0 -1.664 0l-.661.992-.527-2.633-1.96.392 1 5a1 1 0 0 0 1.812.359z"/><path d="m35 22h2v2h-2z"/><path d="m19 28v6a1 1 0 0 0 1 1h23a1 1 0 0 0 1-1v-6a1 1 0 0 0 -1-1h-23a1 1 0 0 0 -1 1zm2 1h21v4h-21z"/><path d="m10.933 32.519-1.226-1.226-1.414 1.414 2 2a1 1 0 0 0 .707.293h.045a1 1 0 0 0 .724-.359l5-6-1.538-1.28z"/><path d="m53 37h-33a1 1 0 0 0 -1 1v6a1 1 0 0 0 1 1h33a1 1 0 0 0 1-1v-6a1 1 0 0 0 -1-1zm-1 6h-31v-4h31z"/><path d="m10.933 42.519-1.226-1.226-1.414 1.414 2 2a1 1 0 0 0 .707.293h.045a1 1 0 0 0 .724-.359l5-6-1.538-1.28z"/><path d="m39 22h2v2h-2z"/><path d="m43 22h2v2h-2z"/></svg>